<?xml version="1.0" encoding="utf-8"?>
<svg version="1.1" xmlns:xlink="http://www.w3.org/1999/xlink" width="11px" height="15px" xmlns="http://www.w3.org/2000/svg">
  <g transform="matrix(1 0 0 1 -27 -285 )">
    <path d="M 11 5.27996197620883  C 10.9999691634724 8.1965427158331  5.50020809642656 15  5.50020809642656 15  C 5.50020809642656 15  0 8.19643812438675  0 5.27996197620883  C 0 2.36399390558172  2.46277904911822 0  5.50020809642656 0  C 8.53737508724161 0  11 2.36370999528588  11 5.27996197620883  Z M 7.78458052570506 5.28109766225554  C 7.78458052570506 4.03965641365915  6.73669208837721 3.03304850433556  5.44314387582468 3.03304850433556  C 4.15038178647407 3.03304850433556  3.10195385646082 4.03931271545909  3.10195384103484 5.28109766225554  C 3.10195384103484 6.5221952126518  4.15021222413747 7.52848931772744  5.44314387582468 7.52848931772744  C 6.73661502019729 7.52848931772744  7.78458052570506 6.52222510660391  7.78458052570506 5.28109766225554  Z " fill-rule="nonzero" fill="#409eff" stroke="none" transform="matrix(1 0 0 1 27 285 )" />
  </g>
</svg>