<?xml version="1.0" encoding="utf-8"?>
<svg version="1.1" xmlns:xlink="http://www.w3.org/1999/xlink" width="275px" height="30px" xmlns="http://www.w3.org/2000/svg">
  <g transform="matrix(1 0 0 1 -20 -46 )">
    <path d="M 21 50  A 3 3 0 0 1 24 47 L 291 47  A 3 3 0 0 1 294 50 L 294 72  A 3 3 0 0 1 291 75 L 24 75  A 3 3 0 0 1 21 72 L 21 50  Z " fill-rule="nonzero" fill="#ffffff" stroke="none" />
    <path d="M 20.5 50  A 3.5 3.5 0 0 1 24 46.5 L 291 46.5  A 3.5 3.5 0 0 1 294.5 50 L 294.5 72  A 3.5 3.5 0 0 1 291 75.5 L 24 75.5  A 3.5 3.5 0 0 1 20.5 72 L 20.5 50  Z " stroke-width="1" stroke="#cccccc" fill="none" stroke-opacity="0.556862745098039" />
  </g>
</svg>