<?xml version="1.0" encoding="utf-8"?>
<svg version="1.1" xmlns:xlink="http://www.w3.org/1999/xlink" width="12px" height="12px" viewBox="20 99  12 12" xmlns="http://www.w3.org/2000/svg">
  <path d="M 20.5 101  A 1.5 1.5 0 0 1 22 99.5 L 30 99.5  A 1.5 1.5 0 0 1 31.5 101 L 31.5 109  A 1.5 1.5 0 0 1 30 110.5 L 22 110.5  A 1.5 1.5 0 0 1 20.5 109 L 20.5 101  Z " fill-rule="nonzero" fill="#ffffff" stroke="none" />
  <path d="M 20.5 101  A 1.5 1.5 0 0 1 22 99.5 L 30 99.5  A 1.5 1.5 0 0 1 31.5 101 L 31.5 109  A 1.5 1.5 0 0 1 30 110.5 L 22 110.5  A 1.5 1.5 0 0 1 20.5 109 L 20.5 101  Z " stroke-width="1" stroke="#d7d7d7" fill="none" />
  <path d="M 22.5714285714286 105  L 25.1428571428571 107.571428571429  L 29.4285714285714 101.571428571429  " stroke-width="2.57142857142857" stroke="#d7d7d7" fill="none" />
</svg>