<?xml version="1.0" encoding="utf-8"?>
<svg version="1.1" xmlns:xlink="http://www.w3.org/1999/xlink" width="12px" height="12px" viewBox="20 136  12 12" xmlns="http://www.w3.org/2000/svg">
  <path d="M 20.5 138  A 1.5 1.5 0 0 1 22 136.5 L 30 136.5  A 1.5 1.5 0 0 1 31.5 138 L 31.5 146  A 1.5 1.5 0 0 1 30 147.5 L 22 147.5  A 1.5 1.5 0 0 1 20.5 146 L 20.5 138  Z " fill-rule="nonzero" fill="#f0f0f0" stroke="none" />
  <path d="M 20.5 138  A 1.5 1.5 0 0 1 22 136.5 L 30 136.5  A 1.5 1.5 0 0 1 31.5 138 L 31.5 146  A 1.5 1.5 0 0 1 30 147.5 L 22 147.5  A 1.5 1.5 0 0 1 20.5 146 L 20.5 138  Z " stroke-width="1" stroke="#d7d7d7" fill="none" />
</svg>