<?xml version="1.0" encoding="utf-8"?>
<svg version="1.1" xmlns:xlink="http://www.w3.org/1999/xlink" width="7px" height="7px" xmlns="http://www.w3.org/2000/svg">
  <g transform="matrix(1 0 0 1 -21 -135 )">
    <path d="M 24.5 135  C 26.46 135  28 136.54  28 138.5  C 28 140.46  26.46 142  24.5 142  C 22.54 142  21 140.46  21 138.5  C 21 136.54  22.54 135  24.5 135  Z " fill-rule="nonzero" fill="#0079fe" stroke="none" />
    <path d="M 24.5 135.5  C 26.18 135.5  27.5 136.82  27.5 138.5  C 27.5 140.18  26.18 141.5  24.5 141.5  C 22.82 141.5  21.5 140.18  21.5 138.5  C 21.5 136.82  22.82 135.5  24.5 135.5  Z " stroke-width="1" stroke="#0079fe" fill="none" />
  </g>
</svg>