<?xml version="1.0" encoding="utf-8"?>
<svg version="1.1" xmlns:xlink="http://www.w3.org/1999/xlink" width="10px" height="5px" xmlns="http://www.w3.org/2000/svg">
  <g transform="matrix(1 0 0 1 -223 -258 )">
    <path d="M 2.56335904101562 2.63641650683594  C 3.23812155273438 1.96158904589844  4.16973292285156 1.54363641796875  5.19707638183594 1.54363641796875  C 6.33455916699219 1.54363641796875  7.38680674121094 2.06167318945313  8.08392709472656 2.91553227050781  L 6.7941225859375 4.20541472851562  L 9.98822798144531 4.20541472851562  L 9.98822798144531 1.01124437109375  L 8.84141751855469 2.15840559277344  C 7.94512920507812 1.11005537792969  6.62202826855469 0.478917298828125  5.19708936914063 0.478917298828125  C 3.8760670234375 0.478917298828125  2.67821416796875 1.01622000683594  1.81051946875 1.88391470605469  C 1.18281105371094 2.51176601953125  0.731561998046875 3.30898350390625  0.528301818359375 4.20541472851562  L 1.62344630761719 4.20541472851562  C 1.80145161328125 3.60018107910156  2.12768642285156 3.0719462265625  2.56335904101562 2.63641650683594  Z " fill-rule="nonzero" fill="#0079fe" stroke="none" transform="matrix(1 0 0 1 223 258 )" />
  </g>
</svg>