<?xml version="1.0" encoding="utf-8"?>
<svg version="1.1" xmlns:xlink="http://www.w3.org/1999/xlink" width="9px" height="12px" xmlns="http://www.w3.org/2000/svg">
  <g transform="matrix(1 0 0 1 -16 -71 )">
    <path d="M 8.89453125 4.57177734375  C 8.89453125 2.14453125  6.92724609375 0.17724609375  4.5 0.17724609375  C 2.07275390625 0.17724609375  0.10546875 2.14453125  0.10546875 4.57177734375  C 0.10546875 7.91015625  3.13330078125 10.869140625  4.1630859375 11.73486328125  C 4.36083984375 11.900390625  4.646484375 11.90625  4.85009765625 11.748046875  C 5.888671875 10.9365234375  8.89453125 8.15185546875  8.89453125 4.57177734375  Z M 6.697265625 4.6083984375  C 6.697265625 5.8212890625  5.712890625 6.8056640625  4.5 6.8056640625  C 3.287109375 6.8056640625  2.302734375 5.8212890625  2.302734375 4.6083984375  C 2.302734375 3.3955078125  3.287109375 2.4111328125  4.5 2.4111328125  C 5.712890625 2.4111328125  6.697265625 3.3955078125  6.697265625 4.6083984375  Z " fill-rule="nonzero" fill="#999999" stroke="none" transform="matrix(1 0 0 1 16 71 )" />
  </g>
</svg>