<?xml version="1.0" encoding="utf-8"?>
<svg version="1.1" xmlns:xlink="http://www.w3.org/1999/xlink" width="12px" height="14px" xmlns="http://www.w3.org/2000/svg">
  <g transform="matrix(1 0 0 1 -102 -256 )">
    <path d="M 6.000023984375 13.99562496875  L 5.85145271875 13.938127953125  C 1.080959109375 12.094210125  0.529301140625 9.68405221875  0.529301140625 8.03166853125  L 0.529301140625 1.720379578125  L 0.95515640625 1.73491371875  C 4.27116415625 1.84784515625  5.68321478125 0.35124384375  5.696469796875 0.33669371875  L 6.00042371875 0.00437503125000016  L 6.303961921875 0.33669371875  C 6.315106359375 0.348701578125  7.6533190625 1.74092565625  10.6910195 1.74092565625  C 10.806988859375 1.74092565625  10.92502084375 1.739246796875  11.044827609375 1.734913734375  L 11.470682875 1.72037959375  L 11.470682875 8.031668546875  C 11.470682875 9.68406821875  10.91900890625 12.094210140625  6.148531296875 13.93812796875  L 6.000023984375 13.99562496875  Z M 1.352710859375 2.56439934375  L 1.352710859375 8.03166853125  C 1.352710859375 8.920346015625  1.3531585625 11.2664993125  6.000023984375 13.112096  C 10.647305125 11.2664993125  10.647305125 8.920346  10.647305125 8.03166853125  L 10.647305125 2.56439934375  C 8.0740098125 2.554502046875  6.593317734375 1.638770921875  6.000023984375 1.165683671875  C 5.406266546875 1.638291234375  3.92555846875 2.553638640625  1.352710859375 2.56439934375  Z M 2.31180459375 7.346900796875  L 3.15795090625 6.661237671875  L 4.851202875 7.910566625  C 4.851202875 7.910566625  7.189169734375 5.491854515625  9.446487265625 4.363163765625  L 9.76892465625 4.726373515625  C 9.76892465625 4.726373515625  6.947509578125 7.0644363125  5.4963974375 10.168763578125  L 2.31180459375 7.346900796875  Z " fill-rule="nonzero" fill="#0079fe" stroke="none" transform="matrix(1 0 0 1 102 256 )" />
  </g>
</svg>