<?xml version="1.0" encoding="utf-8"?>
<svg version="1.1" xmlns:xlink="http://www.w3.org/1999/xlink" width="10px" height="5px" xmlns="http://www.w3.org/2000/svg">
  <g transform="matrix(1 0 0 1 -223 -264 )">
    <path d="M 7.83072876074219 1.90378623925781  C 7.15595326171875 2.57861370019531  6.22434189160156 2.99664427734375  5.19707638183594 2.99664427734375  C 4.059580609375 2.99664427734375  3.00728106054687 2.47854255664062  2.31013473242187 1.62467047558594  L 3.60001719042969 0.334865966796875  L 0.405846833007812 0.334865966796875  L 0.405846833007812 3.52897136230469  L 1.55265729589844 2.38216089941406  C 2.44897159667969 3.43022531738281  3.77205954589844 4.06137639648438  5.19706339453125 4.06137639648438  C 6.51808574023437 4.06137639648438  7.71584765917969 3.52428154882812  8.58354235839844 2.65663881152344  C 9.21018549707031 2.02952799023438  9.66095387011719 1.22869895605469  9.86475969433594 0.334878966796875  L 8.76656227441406 0.334878954101563  C 8.5871928828125 0.934526386718749  8.26249103222656 1.4720759296875  7.83072876074219 1.90378623925781  Z " fill-rule="nonzero" fill="#0079fe" stroke="none" transform="matrix(1 0 0 1 223 264 )" />
  </g>
</svg>