<?xml version="1.0" encoding="utf-8"?>
<svg version="1.1" xmlns:xlink="http://www.w3.org/1999/xlink" width="10px" height="12px" xmlns="http://www.w3.org/2000/svg">
  <g transform="matrix(1 0 0 1 -35 -152 )">
    <path d="M 10 4.51272210729547  C 10 2.02019526336593  7.76166666666667 0  5 0  C 2.23833333333333 0  0 2.02019526336593  0 4.51272210729547  C 0 7.94088666813758  3.445 10.9794528870499  4.61666666666667 11.868459142187  C 4.84166666666667 12.0384383415619  5.16666666666666 12.0444553043716  5.39833333333333 11.8819973085089  C 6.58 11.0486479593617  10 8.18908638403883  10 4.51272210729547  Z M 7.5 4.55032812485626  C 7.5 5.7958394264698  6.38 6.80668917850397  5 6.80668917850397  C 3.62 6.80668917850397  2.5 5.7958394264698  2.5 4.55032812485626  C 2.5 3.3048168232427  3.62 2.29396707120853  5 2.29396707120853  C 6.38 2.29396707120853  7.5 3.3048168232427  7.5 4.55032812485626  Z " fill-rule="nonzero" fill="#666666" stroke="none" transform="matrix(1 0 0 1 35 152 )" />
  </g>
</svg>