<?xml version="1.0" encoding="utf-8"?>
<svg version="1.1" xmlns:xlink="http://www.w3.org/1999/xlink" width="93px" height="93px" xmlns="http://www.w3.org/2000/svg">
  <g transform="matrix(1 0 0 1 -140 -991 )">
    <path d="M 186.5 991  C 212.54 991  233 1011.46  233 1037.5  C 233 1063.54  212.54 1084  186.5 1084  C 160.46 1084  140 1063.54  140 1037.5  C 140 1011.46  160.46 991  186.5 991  Z " fill-rule="nonzero" fill="#f99e0b" stroke="none" />
    <path d="M 186.5 991.5  C 212.26 991.5  232.5 1011.74  232.5 1037.5  C 232.5 1063.26  212.26 1083.5  186.5 1083.5  C 160.74 1083.5  140.5 1063.26  140.5 1037.5  C 140.5 1011.74  160.74 991.5  186.5 991.5  Z " stroke-width="1" stroke="#f99e0b" fill="none" />
  </g>
</svg>