<?xml version="1.0" encoding="utf-8"?>
<svg version="1.1" xmlns:xlink="http://www.w3.org/1999/xlink" width="63px" height="63px" xmlns="http://www.w3.org/2000/svg">
  <g transform="matrix(1 0 0 1 -86 -960 )">
    <path d="M 117.5 960  C 135.14 960  149 973.86  149 991.5  C 149 1009.14  135.14 1023  117.5 1023  C 99.86 1023  86 1009.14  86 991.5  C 86 973.86  99.86 960  117.5 960  Z " fill-rule="nonzero" fill="#4ee386" stroke="none" />
    <path d="M 117.5 960.5  C 134.86 960.5  148.5 974.14  148.5 991.5  C 148.5 1008.86  134.86 1022.5  117.5 1022.5  C 100.14 1022.5  86.5 1008.86  86.5 991.5  C 86.5 974.14  100.14 960.5  117.5 960.5  Z " stroke-width="1" stroke="#4ee386" fill="none" />
  </g>
</svg>