<?xml version="1.0" encoding="utf-8"?>
<svg version="1.1" xmlns:xlink="http://www.w3.org/1999/xlink" width="46px" height="46px" xmlns="http://www.w3.org/2000/svg">
  <g transform="matrix(1 0 0 1 -89 -1049 )">
    <path d="M 112 1049  C 124.88 1049  135 1059.12  135 1072  C 135 1084.88  124.88 1095  112 1095  C 99.12 1095  89 1084.88  89 1072  C 89 1059.12  99.12 1049  112 1049  Z " fill-rule="nonzero" fill="#fcd858" stroke="none" />
    <path d="M 112 1049.5  C 124.6 1049.5  134.5 1059.4  134.5 1072  C 134.5 1084.6  124.6 1094.5  112 1094.5  C 99.4 1094.5  89.5 1084.6  89.5 1072  C 89.5 1059.4  99.4 1049.5  112 1049.5  Z " stroke-width="1" stroke="#fcd858" fill="none" />
  </g>
</svg>