<?xml version="1.0" encoding="utf-8"?>
<svg version="1.1" xmlns:xlink="http://www.w3.org/1999/xlink" width="9px" height="10px" xmlns="http://www.w3.org/2000/svg">
  <g transform="matrix(1 0 0 1 -16 -330 )">
    <path d="M 8.621212125 1.24242425  C 8.62121211637055 1.57714227592903  8.34986954155403 1.84848484375  8.015151515625 1.84848484375  L 0.621212125 1.84848484375  C 0.286494099070971 1.84848484375  0.0151515242544491 1.57714227592903  0.0151515156249999 1.24242425  C 0.0151515156249999 0.907706217969031  0.286494092969029 0.636363640625  0.621212125 0.636363640625  L 8.015151515625 0.636363640625  C 8.34986954765597 0.636363640625  8.621212125 0.907706217969031  8.621212125 1.24242425  Z M 8.015151515625 5.606060609375  L 0.621212125 5.606060609375  C 0.286494092969029 5.606060609375  0.0151515156249999 5.33471803203097  0.0151515156249999 5  C 0.0151515156249999 4.66528196796903  0.286494092969029 4.393939390625  0.621212125 4.393939390625  L 8.015151515625 4.393939390625  C 8.34986954765597 4.393939390625  8.621212125 4.66528196796903  8.621212125 5  C 8.621212125 5.33471803203097  8.34986954765597 5.606060609375  8.015151515625 5.606060609375  Z M 5.59090909375 8.636363640625  C 5.59090909375 8.97108167265597  5.31956651640597 9.24242425  4.984848484375 9.24242425  L 0.621212125 9.24242425  C 0.286494092969033 9.24242425  0.0151515156249999 8.97108167265597  0.0151515156249999 8.636363640625  C 0.0151515156249999 8.30164560859403  0.286494092969029 8.03030303125  0.621212125 8.03030303125  L 4.984848484375 8.03030303125  C 5.31956651640597 8.03030303125  5.59090909375 8.30164560859403  5.59090909375 8.636363640625  Z " fill-rule="nonzero" fill="#0079fe" stroke="none" transform="matrix(1 0 0 1 16 330 )" />
  </g>
</svg>