<?xml version="1.0" encoding="utf-8"?>
<svg version="1.1" xmlns:xlink="http://www.w3.org/1999/xlink" width="15px" height="16px" xmlns="http://www.w3.org/2000/svg">
  <g transform="matrix(1 0 0 1 -13 -327 )">
    <path d="M 14.893939390625 14.1818181875  C 14.893939390625 15.1859722749635  14.0799116655885 16  13.075757578125 16  L 1.924242421875 16  C 0.920088334411538 16  0.106060609375 15.1859722749635  0.106060609375 14.1818181875  L 0.106060609375 1.8181818125  C 0.106060609375 0.814027725036539  0.920088334411538 0  1.924242421875 0  L 13.075757578125 0  C 14.0799116655885 0  14.893939390625 0.814027725036539  14.893939390625 1.8181818125  L 14.893939390625 14.1818181875  Z M 13.075757578125 1.21212121875  L 1.924242421875 1.21212121875  C 1.58952439594597 1.21212121875  1.31818182112945 1.48346378657097  1.3181818125 1.8181818125  L 1.3181818125 14.1818181875  C 1.31818182112945 14.516536213429  1.58952439594597 14.78787878125  1.924242421875 14.78787878125  L 13.075757578125 14.78787878125  C 13.410475604054 14.78787878125  13.6818181788706 14.516536213429  13.6818181875 14.1818181875  L 13.6818181875 1.8181818125  C 13.6818181788706 1.48346378657097  13.410475604054 1.21212121875  13.075757578125 1.21212121875  Z " fill-rule="nonzero" fill="#0079fe" stroke="none" transform="matrix(1 0 0 1 13 327 )" />
  </g>
</svg>