<?xml version="1.0" encoding="utf-8"?>
<svg version="1.1" xmlns:xlink="http://www.w3.org/1999/xlink" width="14px" height="14px" xmlns="http://www.w3.org/2000/svg">
  <g transform="matrix(1 0 0 1 -14 -518 )">
    <path d="M 10.493 7  L 13.986 3.507  L 10.493 0.014  L 7 3.507  L 3.507 0.014  L 0.0140000000000002 3.507  L 3.507 7  L 0.0140000000000002 10.493  L 0.0140000000000002 13.986  L 3.507 13.986  L 7 10.493  L 10.493 13.986  L 13.986 10.493  L 10.493 7  Z M 4.11775 6.388375  L 3.5945 5.865125  L 5.0785 4.38025  L 4.46775 3.768625  L 2.982875 5.2535  L 2.45875 4.729375  L 4.031125 3.15875  L 3.332 2.54625  L 1.848 4.118625  L 1.2355 3.507875  L 3.507 1.23725  L 6.3875 4.11775  L 4.11775 6.388375  Z M 2.63375 13.11275  L 0.88725 13.11275  L 0.88725 11.36625  L 2.63375 13.11275  Z M 3.506125 12.7645  L 3.507 12.763625  L 1.236375 10.493  L 10.493875 1.2355  L 12.763625 3.507  L 3.506125 12.7645  Z M 12.7645 10.493  L 10.493 12.763625  L 9.88225 12.152  L 11.45375 10.5805  L 10.842125 9.968875  L 9.270625 11.54125  L 8.7465 11.017125  L 10.318875 9.445625  L 9.61975 8.833125  L 8.04825 10.4055  L 7.52325 9.88225  L 9.79475 7.611625  L 12.763625 10.493  Z " fill-rule="nonzero" fill="#0079fe" stroke="none" transform="matrix(1 0 0 1 14 518 )" />
  </g>
</svg>