<?xml version="1.0" encoding="utf-8"?>
<svg version="1.1" xmlns:xlink="http://www.w3.org/1999/xlink" width="20px" height="14px" xmlns="http://www.w3.org/2000/svg">
  <g transform="matrix(1 0 0 1 -11 -661 )">
    <path d="M 9.89900625 13.7688327205882  C 4.5086625 13.7688327205882  0.4085625 12.4617178308824  0.363525 10.7301443014706  C 0.33894375 9.81938511029412  1.17590625 9.34854503676471  2.12480625 9.17849908088235  C 2.42926875 5.3415018382353  4.3748625 1.321796875  7.7076375 0.616250919117649  C 8.00664375 0.484132352941178  9.019725 0.0610827205882362  9.87988125 0.0385772058823536  C 9.88125 0.0385772058823536  9.88125 0.0385772058823536  9.88261875 0.0385772058823536  C 10.7919375 0.0385772058823536  11.66983125 0.463035845588237  11.9688375 0.62466636029412  C 16.538625 1.66192738970588  17.488875 6.98590992647059  17.68685625 9.22908823529412  C 18.44188125 9.40758823529412  19.30614375 9.78566544117647  19.198275 10.7568575367647  C 19.19964375 11.3738676470588  17.62130625 13.7688134191176  9.8989875 13.7688134191176  Z M 1.81895625 10.7273648897059  C 2.3923875 11.2642738970588  4.8895875 12.3633382352941  9.8976375 12.3633382352941  C 15.2470125 12.3633382352941  17.13800625 11.1756994485294  17.6909625 10.6851911764706  C 17.54214375 10.6317840073529  17.30458125 10.5657150735294  16.93456875 10.5038924632353  C 16.619175 10.4518943014706  16.3747875 10.1019200367647  16.35703125 9.77163327205882  C 16.272375 8.27619393382353  15.7412625 3.58043566176471  12.41805 2.22836764705883  L 12.4357875 6.42516360294118  C 12.4357875 6.42516360294118  12.4357875 6.42657261029412  12.4357875 6.42657261029412  C 12.4357875 6.81308455882353  12.131325 7.12931985294118  11.75585625 7.12931985294118  C 11.7544875 7.12931985294118  11.7544875 7.12931985294118  11.75311875 7.12931985294118  C 11.37765 7.12931985294118  11.07181875 6.81590257352941  11.07045 6.429390625  L 11.051325 1.73085294117647  C 10.7413875 1.59311764705882  10.30995 1.4427205882353  9.9467625 1.4427205882353  C 9.52215 1.45395404411765  8.9855625 1.61840257352941  8.6019 1.76318290441176  L 8.6415 6.37882077205882  C 8.6415 6.38022977941177  8.6415 6.38304779411765  8.6415 6.38584650735294  C 8.6415 6.77094944852941  8.33975625 7.08438602941176  7.96430625 7.08859375  C 7.9629375 7.08859375  7.9602 7.08859375  7.95885 7.08859375  C 7.58475 7.08859375  7.27891875 6.77797518382353  7.27618125 6.3914825367647  L 7.23931875 2.23825  C 4.90734375 3.29658823529412  3.55974375 6.7737674632353  3.45598125 9.83633180147059  C 3.4437 10.2003575367647  3.16245 10.4941066176471  2.808825 10.5123658088235  C 2.45385 10.5320533088235  2.03604375 10.6262251838235  1.81895625 10.7274034926471  Z " fill-rule="nonzero" fill="#0079fe" stroke="none" transform="matrix(1 0 0 1 11 661 )" />
  </g>
</svg>