<?xml version="1.0" encoding="utf-8"?>
<svg version="1.1" xmlns:xlink="http://www.w3.org/1999/xlink" width="11px" height="8px" xmlns="http://www.w3.org/2000/svg">
  <g transform="matrix(1 0 0 1 -301 -216 )">
    <path d="M 0.892187499999997 2.38385417480469  C 1.477394396653 2.40385941439238  2.05641505231647 2.51039640356361  2.61041667480468 2.7  C 2.8417578997912 2.44193591119502  3.11182523608467 2.22141899104272  3.4109375 2.04635417480469  C 5.02924942185201 1.11167129931269  7.09876787435095 1.66341861462008  8.03697917480469 3.2796875  C 8.66237057718362 4.36175925482169  8.64114969203778 5.70027620376528  7.98177082519531 6.76197917480469  C 8.42292756485498 7.06661183717233  8.8014831213773 7.45312394772285  9.096875 7.90052082519532  C 10.2213541748047 6.36458332519531  10.4041666748047 4.24947915039063  9.38906249999999 2.496875  C 8.50445779470664 0.968772064830238  6.87257977979247 0.027862562417865  5.10690028874616 0.027862562417865  C 3.38815442642083 0.027862562417865  1.79253824745147 0.919799575131583  0.892187499999997 2.38385417480469  Z " fill-rule="nonzero" fill="#f9a825" stroke="none" transform="matrix(1 0 0 1 301 216 )" />
  </g>
</svg>