<?xml version="1.0" encoding="utf-8"?>
<svg version="1.1" xmlns:xlink="http://www.w3.org/1999/xlink" width="14px" height="12px" xmlns="http://www.w3.org/2000/svg">
  <g transform="matrix(1 0 0 1 -301 -212 )">
    <path d="M 10.9078125 6.51979167480469  C 10.5342863341283 6.73490591672707  10.0571488720837 6.60782442586755  9.84010417480469 6.23541667480469  C 9.62529536225334 5.86185027787269  9.75231638207956 5.38493984817829  10.1244791748047 5.16770832519531  L 11.4765625 4.38489582519531  C 11.8501288914668 4.17008702915802  12.3270393029722 4.29710804704418  12.5442708251953 4.66927082519531  C 12.7590796377467 5.04283722212731  12.6320586179204 5.51974765182171  12.2598958251953 5.73697917480469  L 10.9078125 6.51979167480469  Z M 10.9453125 11.340625  C 10.5292807945986 11.2282560889256  10.2819804057157 10.8011220149247  10.3916666748047 10.384375  C 10.5037911852147 9.96815567122647  10.9311286293231 9.72073753592681  11.3479166748047 9.83072917480469  L 12.8578125 10.2333333251953  C 13.2740318287735 10.3454578356053  13.5214499640732 10.7727952797138  13.4114583251953 11.1895833251953  C 13.2993338255773 11.6058026638477  12.8719963780773 11.8532208120213  12.4552083251953 11.7432291748047  L 10.9453125 11.340625  Z M 7.47239582519531 3.13802082519531  C 7.36002692489851 3.5540525404741  6.93289284751466 3.80135294222081  6.51614582519531 3.69166667480469  C 6.09992649642178 3.57954216439471  5.85250836112213 3.15220472028623  5.9625 2.73541667480469  L 6.36510417480469 1.22552082519531  C 6.47722868521467 0.809301496421781  6.90456612932315 0.561883361122126  7.32135417480469 0.671875  C 7.73757350357822 0.783999510409974  7.98499163887788 1.21133695451846  7.875 1.628125  L 7.47239582519531 3.13802082519531  Z M 2.65104167480469 3.17552082519531  C 2.86615593326396 3.54904699652407  2.73907444045947 4.02618447678141  2.36666667480469 4.24322917480469  C 1.99310027787269 4.45803798735603  1.51618984817829 4.33101696752982  1.29895832519531 3.95885417480469  L 0.516145825195311 2.60677082519531  C 0.301337029158015 2.23320443372848  0.428358047044178 1.75629402222312  0.800520825195312 1.5390625  C 1.17408722212731 1.32425368744866  1.65099765182171 1.45127470727487  1.86822917480469 1.8234375  L 2.65104167480469 3.17552082519531  Z " fill-rule="nonzero" fill="#f9a825" stroke="none" transform="matrix(1 0 0 1 301 212 )" />
  </g>
</svg>