<?xml version="1.0" encoding="utf-8"?>
<svg version="1.1" xmlns:xlink="http://www.w3.org/1999/xlink" width="19px" height="13px" xmlns="http://www.w3.org/2000/svg">
  <g transform="matrix(1 0 0 1 -292 -218 )">
    <path d="M 5.35 5.41562499999999  C 5.79010417480469 3.4  7.6078125 1.9375  9.671875 1.9375  C 11.4617991060434 1.93482059310204  13.076401406423 3.01259333990168  13.7604166748047 4.66666667480469  L 14.103125 5.49010417480469  L 14.9859375 5.6140625  C 16.2667274505962 5.79888085771079  17.2188963486953 6.89397480619559  17.2239583251953 8.18802082519531  C 17.2239583251953 9.62395832519531  16.0557291503906 10.7921875  14.6197916748047 10.7921875  L 4.203125 10.7921875  C 3.05416667480469 10.7921875  2.11979167480469 9.85781249999999  2.11979167480469 8.70885417480468  C 2.11662632712691 7.64172027679489  2.92281064585686 6.74590987626282  3.984375 6.63697917480468  L 5.10885417480469 6.52031249999999  L 5.35 5.41562499999999  Z M 15.203125 4.06614582519531  C 14.3015625 1.89947917480469  12.165625 0.375  9.671875 0.375  C 6.8046875 0.375  4.4109375 2.39114582519531  3.8234375 5.08229167480469  C 1.97086727991191 5.28112030121794  0.566196644731518 6.84461528964948  0.566196644731518 8.70782468288434  C 0.566196644731518 10.7179704550919  2.19298594391831 12.3489704512943  4.203125 12.3541666748047  L 14.6197916748047 12.3541666748047  C 16.9209781273932 12.3541666613212  18.7864583251953 10.4886864525885  18.7864583251953 8.1875  C 18.7864583251953 6.08489582519531  17.2270833251953 4.35052082519531  15.203125 4.06614582519531  Z " fill-rule="nonzero" fill="#a8a8b4" stroke="none" transform="matrix(1 0 0 1 292 218 )" />
  </g>
</svg>