<?xml version="1.0" encoding="utf-8"?>
<svg version="1.1" xmlns:xlink="http://www.w3.org/1999/xlink" width="9px" height="15px" xmlns="http://www.w3.org/2000/svg">
  <g transform="matrix(1 0 0 1 -344 -212 )">
    <path d="M 6.817 7.0190000078125  L 1.1369999921875 0.8675000078125  C 0.948080926328874 0.661582033107629  0.953575705744132 0.343764389001098  1.1495000078125 0.144500007812501  C 1.23965423659187 0.0534207038550774  1.36248615532383 0.00217439793607532  1.49063928472835 0.00217439793607532  C 1.62597499341846 0.00217439793607532  1.75502215153433 0.0593062698085172  1.846 0.1595000078125  L 8.2310000078125 7.0195  L 1.846 13.8785000078125  C 1.75510373322025 13.9788255159459  1.62603344311261 14.0360525876612  1.4906549407693 14.0360525876612  C 1.36245234927669 14.0360525876612  1.23958871012305 13.9847136591012  1.1495000078125 13.8935000078125  C 0.954500007812499 13.6985000078125  0.944499999999998 13.378500015625  1.1369999921875 13.1705000078125  L 6.817 7.0190000078125  Z " fill-rule="nonzero" fill="#3d3d3d" stroke="none" transform="matrix(1 0 0 1 344 212 )" />
  </g>
</svg>