<?xml version="1.0" encoding="utf-8"?>
<svg version="1.1" xmlns:xlink="http://www.w3.org/1999/xlink" width="15px" height="15px" xmlns="http://www.w3.org/2000/svg">
  <g transform="matrix(1 0 0 1 -63 -52 )">
    <path d="M 70.5 52  C 74.7 52  78 55.3  78 59.5  C 78 63.7  74.7 67  70.5 67  C 66.3 67  63 63.7  63 59.5  C 63 55.3  66.3 52  70.5 52  Z " fill-rule="nonzero" fill="#ff0000" stroke="none" />
    <path d="M 70.5 52.5  C 74.42 52.5  77.5 55.58  77.5 59.5  C 77.5 63.42  74.42 66.5  70.5 66.5  C 66.58 66.5  63.5 63.42  63.5 59.5  C 63.5 55.58  66.58 52.5  70.5 52.5  Z " stroke-width="1" stroke="#ff0000" fill="none" />
  </g>
</svg>