<?xml version="1.0" encoding="utf-8"?>
<svg version="1.1" xmlns:xlink="http://www.w3.org/1999/xlink" width="16px" height="14px" xmlns="http://www.w3.org/2000/svg">
  <g transform="matrix(1 0 0 1 -277 -100 )">
    <path d="M 6.39553611814955 13.993837675099  C 6.34756530947868 13.9979461492583  6.29944238567293 14.0000021144408  6.25129777419016 13.9999999983682  C 5.8055393351716 13.9999999983682  5.37756340788769 13.8231500614243  5.05928253465328 13.5032118522562  L 1.91699532049211 10.3445841325518  L 0.319395335928675 8.79698875576815  C -0.0955589232269176 8.39499549739406  -0.107797986926926 7.73099423902511  0.292112875993666 7.31385739899994  C 0.692023738914145 6.89672055897478  1.35258535452095 6.88448332127693  1.76756135268846 7.28641102302051  L 3.38590035460493 8.85435080747678  L 6.19968935993853 11.6828134836514  L 14.1044071281651 0.4435006678588  C 14.4370792272775 -0.0295341257933046  15.0882713287552 -0.141920042721878  15.5588122413403 0.19252803400218  C 16.0293748929372 0.526954258516042  16.1411786311411 1.18149350987933  15.8084847930168 1.65450645132125  L 7.6300076479281 13.2830071303256  C 7.34220486937807 13.6922116180574  6.89227254007466 13.9512914218888  6.39553611814955 13.993837675099  Z " fill-rule="nonzero" fill="#0079fe" stroke="none" transform="matrix(1 0 0 1 277 100 )" />
  </g>
</svg>