<?xml version="1.0" encoding="utf-8"?>
<svg version="1.1" xmlns:xlink="http://www.w3.org/1999/xlink" width="40px" height="8px" xmlns="http://www.w3.org/2000/svg">
  <g transform="matrix(1 0 0 1 -111 -855 )">
    <path d="M 39.77 3.72915812405674  C 39.92 3.7989326261131  40 3.87771028972513  40 3.96774190528173  C 40 4.06452589200507  39.92 4.14780513639492  39.765 4.21757963845129  L 30.88 7.90662508588295  C 30.63 8.00340907260629  30.365 8.02591697649545  30.07 7.96964721677257  C 29.78 7.90662508588295  29.63 7.80759030877069  29.63 7.66804130465796  L 29.63 5.33397167135312  L 0.74 5.33397167135312  C 0.525 5.33397167135312  0.345 5.30246060590831  0.21 5.23943847501869  C 0.07 5.17641634412907  0 5.09763868051705  0 5.0008546937937  L 0 2.99990203804828  C 0 2.90311805132494  0.07 2.822089597324  0.21 2.76131825682329  C 0.35 2.69829612593367  0.525 2.66678506048886  0.74 2.66678506048886  L 29.63 2.66678506048886  L 29.63 0.332715427184024  C 29.63 0.18641405190455  29.775 0.0873792747922906  30.07 0.0311095150694159  C 30.36 -0.0229094542645437  30.635 -0.00715392154213882  30.88 0.0828776940144606  L 39.77 3.72915812405674  Z " fill-rule="nonzero" fill="#000000" stroke="none" transform="matrix(1 0 0 1 111 855 )" />
  </g>
</svg>