<?xml version="1.0" encoding="utf-8"?>
<svg version="1.1" xmlns:xlink="http://www.w3.org/1999/xlink" width="13px" height="15px" xmlns="http://www.w3.org/2000/svg">
  <g transform="matrix(1 0 0 1 -306 -194 )">
    <path d="M 10.4521630859375 3.6887109375  C 10.4521630859375 3.4708740234375  10.2756201171875 3.294228515625  10.05775390625 3.294228515625  C 10.0384619140625 3.294228515625  10.019580078125 3.2956640625  10.00103515625 3.2983740234375  L 2.976318359375 3.2983740234375  C 2.9578173828125 3.2956640625  2.938935546875 3.294228515625  2.9196728515625 3.294228515625  C 2.7018359375 3.294228515625  2.525263671875 3.470859375  2.525263671875 3.6887109375  C 2.525263671875 3.9065625  2.7018212890625 4.0831494140625  2.9196728515625 4.0831494140625  L 2.9196728515625 4.0872216796875  L 10.05775390625 4.0831494140625  C 10.2756201171875 4.0831494140625  10.4521630859375 3.9065478515625  10.4521630859375 3.6887109375  Z M 10.4521630859375 6.7547021484375  C 10.4521630859375 6.5368505859375  10.2756201171875 6.36029296875  10.05775390625 6.36029296875  C 10.0384619140625 6.36029296875  10.019580078125 6.361728515625  10.00103515625 6.364365234375  L 2.976318359375 6.364365234375  C 2.9578173828125 6.3617138671875  2.938935546875 6.36029296875  2.9196728515625 6.36029296875  C 2.7018359375 6.36029296875  2.525263671875 6.5368505859375  2.525263671875 6.7547021484375  C 2.525263671875 6.972568359375  2.7018212890625 7.149140625  2.9196728515625 7.149140625  L 2.9196728515625 7.153212890625  L 10.05775390625 7.149140625  C 10.2756201171875 7.149140625  10.4521630859375 6.9725830078125  10.4521630859375 6.7547021484375  Z M 6.3107421875 9.3407958984375  C 6.291494140625 9.3407958984375  6.2726123046875 9.3422314453125  6.2540966796875 9.344853515625  L 2.967265625 9.344853515625  C 2.9487939453125 9.34224609375  2.9298828125 9.3407958984375  2.9106640625 9.3407958984375  C 2.6927978515625 9.3407958984375  2.5162255859375 9.5173388671875  2.5162255859375 9.735205078125  C 2.5162255859375 9.9530126953125  2.692783203125 10.1296875  2.9106640625 10.1296875  L 2.9106640625 10.133671875  L 6.3107568359375 10.133671875  L 6.3107568359375 10.1296875  C 6.528623046875 10.1296875  6.7052978515625 9.9530126953125  6.7052978515625 9.735205078125  C 6.7052978515625 9.5173388671875  6.528623046875 9.3407958984375  6.3107568359375 9.3407958984375  Z M 12.436982421875 1.7444677734375  C 12.436982421875 1.1325732421875  11.939228515625 0.634716796875  11.3272314453125 0.634716796875  L 1.65640625 0.634716796875  C 1.0444384765625 0.634716796875  0.546655273437499 1.13255859375  0.546655273437499 1.7444677734375  L 0.546655273437499 13.35087890625  C 0.546655273437499 13.962685546875  1.0444970703125 14.4605712890625  1.65640625 14.4605712890625  L 8.0314208984375 14.4605712890625  C 8.1377099609375 14.46509765625  8.245654296875 14.4272021484375  8.3268212890625 14.3459033203125  L 8.3297802734375 14.3487890625  L 12.32041015625 10.3580859375  L 12.3175244140625 10.3552001953125  C 12.394091796875 10.27857421875  12.43267578125 10.1781884765625  12.4329541015625 10.077802734375  L 12.43701171875 10.077802734375  L 12.43701171875 5.28837890625  L 12.4379052734375 4.4994580078125  L 12.43701171875 1.7444677734375  Z M 8.050009765625 13.5129345703125  L 8.050009765625 10.2451171875  L 11.3176806640625 10.2451171875  L 8.0500244140625 13.5129345703125  Z M 11.6665478515625 1.58009765625  L 11.6665625 9.4718115234375  C 11.6363427734375 9.4644580078125  11.604833984375 9.4604150390625  11.5723583984375 9.4604150390625  L 11.5723583984375 9.4562255859375  L 7.6513525390625 9.4562255859375  C 7.4336181640625 9.4562255859375  7.256943359375 9.632900390625  7.256943359375 9.8507080078125  C 7.256943359375 9.8513232421875  7.2570751953125 9.851806640625  7.2570751953125 9.8524951171875  C 7.2570751953125 9.8532568359375  7.256943359375 9.8540771484375  7.256943359375 9.8548974609375  C 7.256943359375 9.874130859375  7.25837890625 9.892939453125  7.2610595703125 9.911484375  L 7.2610595703125 13.673671875  L 1.4920361328125 13.673671875  C 1.40462890625 13.673671875  1.33349609375 13.60259765625  1.33349609375 13.5151904296875  L 1.33349609375 1.58009765625  C 1.33349609375 1.4926904296875  1.40462890625 1.4215869140625  1.4920361328125 1.4215869140625  L 11.5080078125 1.4215869140625  C 11.59548828125 1.4215869140625  11.6665478515625 1.4927197265625  11.6665478515625 1.58009765625  Z " fill-rule="nonzero" fill="#ffffff" stroke="none" transform="matrix(1 0 0 1 306 194 )" />
  </g>
</svg>