<?xml version="1.0" encoding="utf-8"?>
<svg version="1.1" xmlns:xlink="http://www.w3.org/1999/xlink" width="18px" height="16px" xmlns="http://www.w3.org/2000/svg">
  <g transform="matrix(1 0 0 1 -303 -314 )">
    <path d="M 16.62890625 6.5390625  C 18.041015625 5.126953125  18.041015625 2.8359375  16.626953125 1.423828125  C 15.21484375 0.0117187500000004  12.923828125 0.0117187500000004  11.509765625 1.423828125  L 4.859375 8.07421875  C 4.01171875 8.921875  4.01171875 10.296875  4.859375 11.14453125  C 5.70703125 11.9921875  7.08203125 11.9921875  7.9296875 11.14453125  L 13.046875 6.02734375  C 13.330078125 5.744140625  13.330078125 5.287109375  13.046875 5.00390625  C 12.763671875 4.720703125  12.306640625 4.720703125  12.0234375 5.00390625  L 6.90625 10.12109375  C 6.623046875 10.404296875  6.166015625 10.404296875  5.8828125 10.12109375  C 5.599609375 9.837890625  5.599609375 9.380859375  5.8828125 9.09765625  L 12.53515625 2.4453125  C 13.3828125 1.59765625  14.7578125 1.59765625  15.60546875 2.4453125  C 16.453125 3.29296875  16.453125 4.66796875  15.60546875 5.515625  L 7.9296875 13.19140625  C 6.517578125 14.603515625  4.2265625 14.603515625  2.8125 13.19140625  C 1.400390625 11.779296875  1.400390625 9.48828125  2.8125 8.07421875  L 8.953125 1.93359375  C 9.236328125 1.650390625  9.236328125 1.193359375  8.953125 0.91015625  C 8.669921875 0.626953125  8.212890625 0.626953125  7.9296875 0.91015625  L 1.7890625 7.05078125  C -0.189453125 9.029296875  -0.189453125 12.236328125  1.7890625 14.21484375  C 3.767578125 16.193359375  6.974609375 16.193359375  8.953125 14.21484375  L 16.62890625 6.5390625  Z " fill-rule="nonzero" fill="#999999" stroke="none" transform="matrix(1 0 0 1 303 314 )" />
  </g>
</svg>