<?xml version="1.0" encoding="utf-8"?>
<svg version="1.1" xmlns:xlink="http://www.w3.org/1999/xlink" width="12px" height="12px" xmlns="http://www.w3.org/2000/svg">
  <g transform="matrix(1 0 0 1 -22 -13 )">
    <path d="M 0.97908855032307 0.428574881373393  L 0.97908855032307 0.515628426826027  L 1.97584658932774 0.239775830566359  C 2.77951972764911 0.0187595287288786  3.6275894366754 -0.0505639879633293  4.46410835042222 0.03637856982958  C 4.81563014462942 0.0731386782825183  5.15688296527399 0.164335357270289  5.47192703039383 0.305708846606876  L 7.04728050786363 1.0072532801299  C 8.14566487874013 1.49319956369963  9.43989755619843 1.50359241774136  10.5482869881985 1.03533809317824  L 11.4575848827939 0.648713208543384  C 11.5089856483564 0.626852062630917  11.5653852701538 0.61549321459853  11.6225307548804 0.61549321459853  C 11.8310012556125 0.61549321459853  11.9999999875471 0.763443073344689  11.9999999875471 0.945948473136724  L 11.9999999396729 6.9200238372446  C 12.0000814535373 7.04661241194164  11.9175512145566 7.16211736098637  11.787491829477 7.21743892707023  L 10.8691220675325 7.60786738199872  C 10.2302797106612 7.87865534787933  9.5298268963834 8.01963135829352  8.82004271429234 8.02027350894068  L 8.78664661577118 8.02027350894068  C 8.06576276451602 8.01487275434721  7.35590577197134 7.86473964160423  6.71171320549901 7.5814298898874  L 5.09012839054363 6.86598367479824  C 4.85508755515713 6.76170620171074  4.60085819675199 6.69458623975264  4.33915217418724 6.66771587681659  C 3.60322401462422 6.59213413116433  2.85734455523191 6.65493953048075  2.15136351023175 6.85193457184749  L 0.97908855032307 7.18139875925283  L 0.97908855032307 11.5714286993101  C 0.97908855032307 11.8081205929693  0.759910399378086 12  0.489544275161528 12  C 0.219178150944977 12  0 11.8081205929693  0 11.5714286993101  L 0 0.428574881373393  C 0 0.191882987714266  0.219178150944977 0  0.489544275161528 0  C 0.759910399378086 0  0.97908855032307 0.191882987714266  0.97908855032307 0.428574881373393  Z M 2.36526376196014 1.00422649531879  L 0.97908855032307 1.38774423802363  L 0.97908855032307 6.44499272898932  L 2.09667223574105 6.13079639417106  C 2.656579881425 5.97441482279567  3.24072328507928 5.89469791689766  3.82843510912497 5.89446610754689  C 4.05114091773054 5.89452175587596  4.27365726692529 5.90583522447655  4.4948731484644 5.92835002600768  C 4.82994303183757 5.96284195755234  5.15541490121099 6.04889712527617  5.45627691184725 6.18254637872936  L 7.00929493176282 6.86776492426674  C 8.05866638211881 7.327597770935  9.29227226941886 7.33549267590131  10.3492107490524 6.88913991788863  L 11.0252102000161 6.60152839656628  L 11.0252102000161 1.58228882283055  L 10.6738244982603 1.73169949253354  C 10.0498189642514 1.99624585687235  9.36458486639326 2.13138331505087  8.67128244767763 2.12662794611926  C 7.9779824088568 2.12019806764404  7.29570425904443 1.97395734769516  6.6774298079791 1.69926200221258  L 5.16871554496565 1.02716845275883  C 4.94333521213915 0.925923256508682  4.69920113782543 0.860536770932981  4.44769331894571 0.834056903238604  C 3.74761446384123 0.761236308079944  3.03785408596062 0.819235693256474  2.36526376196014 1.00422649531879  Z " fill-rule="nonzero" fill="#ff9900" stroke="none" transform="matrix(1 0 0 1 22 13 )" />
  </g>
</svg>