<?xml version="1.0" encoding="utf-8"?>
<svg version="1.1" xmlns:xlink="http://www.w3.org/1999/xlink" width="14px" height="12px" xmlns="http://www.w3.org/2000/svg">
  <g transform="matrix(1 0 0 1 -22 -43 )">
    <path d="M 3.25439057011738 1.58102766815654  L 13.4882961163397 1.58102766815654  C 13.7708976145991 1.58102766815654  13.9999913937232 1.22710256916997  13.9999913937232 0.790513834078283  C 13.9999913937232 0.353925098986565  13.7708976145991 0  13.4882961163397 0  L 3.25439057011738 0  C 2.97178907185804 0  2.74269529273388 0.353925098986565  2.74269529273388 0.790513834078283  C 2.74269529273388 1.22710256916997  2.97178907185804 1.58102766815654  3.25439057011738 1.58102766815654  Z M 13.4882961163397 5.21739130458118  L 3.25439057011738 5.21739130458118  C 2.97178046554882 5.21739130446936  2.74268668645706 5.57131640340587  2.74268668645706 6.00790513843582  C 2.74268668645706 6.44449387346576  2.97178046554882 6.79841897240227  3.25438196376817 6.79841897240227  L 13.4882961163397 6.79841897229046  C 13.7709062209083 6.79841897240227  14 6.44449387346576  14 6.00790513843582  C 14 5.57131640340587  13.7709062209083 5.21739130446936  13.4883047226889 5.21739130446936  Z M 13.4882961163397 10.4189723316198  L 3.25439057011738 10.4189723316198  C 2.97178907181805 10.4189723316198  2.74269529266149 10.7728974306565  2.74269529266149 11.2094861658099  C 2.74269529266149 11.6460749009634  2.97178907181805 12  3.25439057011738 12  L 13.4882961163397 12  C 13.770897614639 12  13.9999913937956 11.6460749009634  13.9999913937956 11.2094861658099  C 13.9999913937956 10.7728974306565  13.770897614639 10.4189723316198  13.4882961163397 10.4189723316198  Z M 1.02339916097142 0  L 0.511703883660289 0  C 0.22910238540095 0  0 0.353925098986565  0 0.790513834078283  C 0 1.22710256916997  0.22910238540095 1.58102766815654  0.511703883660289 1.58102766815654  L 1.02339916097142 1.58102766815654  C 1.30600065923076 1.58102766815654  1.53509443835492 1.22710256916997  1.53509443835492 0.790513834078283  C 1.53509443835492 0.353925098986565  1.30600065923076 0  1.02339916097142 0  Z M 1.02339916097142 5.21739130458118  L 0.511703883660289 5.21739130458118  C 0.229093779091727 5.21739130446936  0 5.57131640340587  0 6.00790513843582  C 0 6.44449387346576  0.229093779091727 6.79841897240227  0.511695277311105 6.79841897240227  L 1.02339916097142 6.79841897229046  C 1.30600926553996 6.79841897240227  1.53510304463171 6.44449387346576  1.53510304463171 6.00790513843582  C 1.53510304463171 5.57131640340587  1.30600926553996 5.21739130446936  1.02340776732058 5.21739130446936  Z M 1.02339916097142 10.4189723316198  L 0.511703883660289 10.4189723316198  C 0.229102385360989 10.4189723316198  0 10.7728974306565  0 11.2094861658099  C 0 11.6460749009634  0.229102385360989 12  0.511703883660289 12  L 1.02339916097142 12  C 1.30600065927072 12  1.53509443842728 11.6460749009634  1.53509443842728 11.2094861658099  C 1.53509443842728 10.7728974306565  1.30600065927072 10.4189723316198  1.02339916097142 10.4189723316198  Z " fill-rule="nonzero" fill="#999999" stroke="none" transform="matrix(1 0 0 1 22 43 )" />
  </g>
</svg>