<?xml version="1.0" encoding="utf-8"?>
<svg version="1.1" xmlns:xlink="http://www.w3.org/1999/xlink" width="18px" height="18px" xmlns="http://www.w3.org/2000/svg">
  <g transform="matrix(1 0 0 1 -303 -103 )">
    <path d="M 17.9911723359375 17.4002942752112  C 17.9888711124987 13.453155965551  15.417027190458 9.967310915338  11.6462855566406 8.80051417804865  C 12.9905315554204 7.91236849178338  13.7992291875 6.40879443911356  13.7992291875 4.79764579831027  C 13.7992291875 2.14797918881373  11.6512499258756 0  9.0015832265625 0  C 6.35191652724942 0  4.203937265625 2.14797918881372  4.203937265625 4.79764579831027  C 4.203937265625 6.40879443911356  5.01263489770465 7.91236849178338  6.35688089648438 8.80051417804866  C 2.58139152967683 9.96301600546879  0.00392719490392939 13.449887452059  0 17.4002942752112  C 0 17.7315026013983  0.268497407703052 18  0.599705745117188 18  C 0.930914082531323 18  1.19941149023438 17.7315026013983  1.19941149023438 17.4002942752112  C 1.19941149023438 13.0945860396334  4.68987778643905 9.60411986174609  8.99558616796875 9.60411986174609  C 13.3012945494984 9.60411986174609  16.7917608457031 13.0945860396334  16.7917608457031 17.4002942752112  C 16.7917608457031 17.7315026013983  17.0602582534062 18  17.3914665908203 18  C 17.7226749282345 18  17.9911723359375 17.7315026013983  17.9911723359375 17.4002942752112  Z M 5.39735169726563 4.80647406343583  C 5.39735169726563 2.81922410631342  7.00833614348394 1.20823971470313  8.99558616796875 1.20823971470313  C 10.9828361924536 1.20823971470313  12.5938206386719 2.81922410631342  12.5938206386719 4.80647406343583  C 12.5938206386719 6.79372402055824  10.9828361924536 8.40470841216853  8.99558616796875 8.40470841216853  C 7.00833614348394 8.40470841216853  5.39735169726563 6.79372402055824  5.39735169726563 4.80647406343583  Z " fill-rule="nonzero" fill="#ffffff" stroke="none" transform="matrix(1 0 0 1 303 103 )" />
  </g>
</svg>