<?xml version="1.0" encoding="utf-8"?>
<svg version="1.1" xmlns:xlink="http://www.w3.org/1999/xlink" width="19px" height="16px" xmlns="http://www.w3.org/2000/svg">
  <g transform="matrix(1 0 0 1 -75 -41 )">
    <path d="M 2 7.125  L 17 7.125  L 17 4  C 17 3.625  16.75 3.375  16.375 3.375  L 13.25 3.375  L 13.25 4  C 13.25 4.375  13 4.625  12.625 4.625  C 12.25 4.625  12 4.375  12 4  L 12 3.375  L 7 3.375  L 7 4  C 7 4.375  6.75 4.625  6.375 4.625  C 6 4.625  5.75 4.375  5.75 4  L 5.75 3.375  L 2.625 3.375  C 2.25 3.375  2 3.625  2 4  L 2 7.125  Z M 17 14  L 17 8.375  L 2 8.375  L 2 14  C 2 14.375  2.25 14.625  2.625 14.625  L 16.375 14.625  C 16.75 14.625  17 14.375  17 14  Z M 13.25 1.5  L 13.25 2.125  L 16.375 2.125  C 17.4375 2.125  18.25 2.9375  18 4  L 18 14  C 18.25 15.0625  17.4375 15.875  16.375 15.875  L 2.625 15.875  C 1.5625 15.875  0.75 15.0625  1 14  L 1 4  C 0.75 2.9375  1.5625 2.125  2.625 2.125  L 5.75 2.125  L 5.75 1.5  C 5.75 1.125  6 0.875  6.375 0.875  C 6.75 0.875  7 1.125  7 1.5  L 7 2.125  L 12 2.125  L 12 1.5  C 12 1.125  12.25 0.875  12.625 0.875  C 13 0.875  13.25 1.125  13.25 1.5  Z " fill-rule="nonzero" fill="#999999" stroke="none" transform="matrix(1 0 0 1 75 41 )" />
  </g>
</svg>