<?xml version="1.0" encoding="utf-8"?>
<svg version="1.1" xmlns:xlink="http://www.w3.org/1999/xlink" width="16px" height="16px" xmlns="http://www.w3.org/2000/svg">
  <g transform="matrix(1 0 0 1 -172 -312 )">
    <path d="M 16 8.53392857142859  C 16 3.81964285714287  12.1803571428572 0  7.46607142857141 0  L 7.46607142857141 1.06607142857143  C 3.34285714285713 1.06607142857143  0 4.40892857142859  0 8.53392857142859  C 0 12.6571428571428  3.34285714285713 16  7.46607142857141 16  C 11.5892857142857 16  14.9321428571429 12.6571428571428  14.9321428571429 8.53392857142859  L 16 8.53392857142859  Z M 8.53392857142859 7.46607142857141  L 8.53392857142859 1.14285714285717  C 11.7982142857143 1.61250000000001  14.3875 4.20178571428568  14.8571428571429 7.46607142857141  L 8.53392857142859 7.46607142857141  Z M 13.8660714285714 8.53392857142859  C 13.8660714285714 12.0625  10.9964285714286 14.9339285714286  7.46607142857141 14.9339285714286  C 3.9375 14.9339285714286  1.06607142857143 12.0625  1.06607142857143 8.53392857142859  C 1.06607142857143 5.00535714285712  3.9375 2.13392857142856  7.46607142857141 2.13392857142856  L 7.46607142857141 8.53392857142859  L 13.8660714285714 8.53392857142859  Z " fill-rule="nonzero" fill="#999999" stroke="none" transform="matrix(1 0 0 1 172 312 )" />
  </g>
</svg>