<?xml version="1.0" encoding="utf-8"?>
<svg version="1.1" xmlns:xlink="http://www.w3.org/1999/xlink" width="16px" height="16px" xmlns="http://www.w3.org/2000/svg">
  <g transform="matrix(1 0 0 1 -46 -11 )">
    <path d="M 15.5 3  C 15.5 1.625  14.375 0.5  13 0.5  L 3 0.5  C 1.625 0.5  0.5 1.625  0.5 3  L 0.5 13  C 0.5 14.375  1.625 15.5  3 15.5  L 13 15.5  C 14.375 15.5  15.5 14.375  15.5 13  L 15.5 3  Z M 14.075 3.175  C 14.3375 3.45  14.3375 3.8875  14.075 4.15  L 7.95 10.275  C 7.7875 10.4375  7.575 10.4875  7.375 10.4625  C 7.175 10.4875  6.9625 10.4375  6.8 10.275  L 3.175 6.65  C 2.9 6.375  2.9 5.95  3.175 5.675  C 3.45 5.4  3.875 5.4  4.15 5.675  L 7.375 8.9  L 13.1 3.175  C 13.375 2.9  13.8 2.9  14.075 3.175  Z " fill-rule="nonzero" fill="#000000" stroke="none" fill-opacity="0.517647058823529" transform="matrix(1 0 0 1 46 11 )" />
  </g>
</svg>