<?xml version="1.0" encoding="utf-8"?>
<svg version="1.1" xmlns:xlink="http://www.w3.org/1999/xlink" width="18px" height="18px" xmlns="http://www.w3.org/2000/svg">
  <g transform="matrix(1 0 0 1 -27 -82 )">
    <path d="M 18 3.78947747116949  C 18 1.69651838953227  16.3032461443493 0  14.2102686502087 0  L 3.78925137253764 0  C 1.69651386702387 0  0 1.69651838953227  0 3.78947747116949  L 0 14.2105465207214  C 0 16.303289604983  1.69648987519691 18  3.78925137253764 18  L 14.2102926420357 18  C 16.3032701361763 18  18 16.303289604983  18 14.2105465207214  L 18 3.78947747116949  Z M 17 14.2105465207214  L 17.0526151696585 14.2105465207214  C 17.0526151696585 15.78008582241  15.7800917636177 17.0526606279344  14.2105086388355 17  L 3.78949136116447 17  C 2.21993222820929 17.0526606279344  0.947384830341488 15.7801098377534  1 14.2105465207214  L 1 3.78947747116949  C 0.947384853793913 2.21996216137179  2.21993225166171 0.947363363956523  3.78949138461689 1  L 14.2105326541149 1  C 15.7800917870701 0.947363363956523  17.0526391849379 2.21993814602839  17 3.78947747116949  L 17 14.2105465207214  Z " fill-rule="nonzero" fill="#000000" stroke="none" transform="matrix(1 0 0 1 27 82 )" />
  </g>
</svg>