<?xml version="1.0" encoding="utf-8"?>
<svg version="1.1" xmlns:xlink="http://www.w3.org/1999/xlink" width="14px" height="16px" xmlns="http://www.w3.org/2000/svg">
  <g transform="matrix(1 0 0 1 -320 -355 )">
    <path d="M 1.234375 0.6875  L 1.234375 0.8017578125  L 2.379677734375 0.439701171875  C 3.30312054280454 0.149617189155053  4.27757624687723 0.0586300463468636  5.238759765625 0.1727421875  C 5.64266809276518 0.220989844241122  6.03477708341621 0.340685521128585  6.396771484375 0.52623828125  L 8.206896484375 1.447015625  C 9.468970703125 2.0848203125  10.956080078125 2.0984609375  12.229650390625 1.483876953125  L 13.274458984375 0.976431640625  C 13.333519894891 0.947738878053248  13.3983246303779 0.932830385562201  13.4639863831338 0.932830385562201  C 13.7035247918368 0.932830385562201  13.8977090393838 1.12701463310922  13.8977090393838 1.3665530418122  L 13.897708984375 9.207529296875  C 13.8978026460744 9.37367685074167  13.8029731040247 9.52527714159894  13.65353125 9.59788671875  L 12.598298828125 10.11032421875  C 11.8642511761091 10.465733530019  11.0594113934332 10.6507645988991  10.243849609375 10.651607421875  L 10.2054765625 10.651607421875  C 9.37716094958181 10.6445189293559  8.56151550428551 10.447469160083  7.8213203125 10.075625  L 5.95807421875 9.1366015625  C 5.68800575586934 8.9997373382337  5.39588914587383 8.91164236187701  5.095181640625 8.876375  C 4.2495796986605 8.77717392923079  3.39254343616977 8.85960604043051  2.5813515625 9.118162109375  L 1.234375 9.550583984375  L 1.234375 15.3125  C 1.234375 15.623158203125  0.982533203125 15.875  0.671875 15.875  C 0.361216796875 15.875  0.109375 15.623158203125  0.109375 15.3125  L 0.109375 0.6875  C 0.109375 0.376841796875  0.361216796875 0.125  0.671875 0.125  C 0.982533203125 0.125  1.234375 0.376841796875  1.234375 0.6875  Z M 2.82712890625 1.44304296875  L 1.234375 1.94641015625  L 1.234375 8.58405078125  L 2.518509765625 8.17166796875  C 3.16185923711723 7.96641709507495  3.83305626918775 7.86178862486367  4.508353515625 7.861484375  C 4.76424868935428 7.86155741345371  5.01992616894639 7.87640634542277  5.274109375 7.90595703125  C 5.65911399860674 7.95122770491071  6.03309023694012 8.06417514625065  6.3787890625 8.23958984375  L 8.16325 9.138939453125  C 9.36900700865968 9.74247024446483  10.7864545140509 9.75283231032505  12.00090625 9.166994140625  L 12.7776484375 8.78950390625  L 12.7776484375 2.20175  L 12.373896484375 2.3978515625  C 11.6568967548527 2.74506876930093  10.8695437009987 2.92243673608511  10.072919921875 2.9161953125  C 9.2762988773167 2.90775609448309  8.49234229005434 2.71581509227686  7.781927734375 2.35527734375  L 6.048373046875 1.473154296875  C 5.78940477036298 1.34026993714527  5.5088879228191 1.25445014921938  5.2198984375 1.2196953125  C 4.4154883443244 1.12411825283499  3.59995391196665 1.20024246859392  2.82712890625 1.44304296875  Z " fill-rule="nonzero" fill="#ff9900" stroke="none" transform="matrix(1 0 0 1 320 355 )" />
  </g>
</svg>