<?xml version="1.0" encoding="utf-8"?>
<svg version="1.1" xmlns:xlink="http://www.w3.org/1999/xlink" width="12px" height="12px" xmlns="http://www.w3.org/2000/svg">
  <g transform="matrix(1 0 0 1 -59 -50 )">
    <path d="M 4.94117058212395 0  C 7.67015127233363 0  9.88235503236271 2.21728552202018  9.88235503236271 4.95171383794499  C 9.88235503236271 6.17881230740485  9.43669022969817 7.30271298380009  8.69854447232696 8.16802837855334  C 8.69854447232696 8.16802837855334  11.3468823866184 10.825701355501  11.8445980606636 11.3141912309828  C 12.2536108321437 11.7152764957998  11.7844870761925 12.3381612144026  11.2559875763133 11.7747650140156  C 10.9378557470234 11.4353787589213  8.16198487291359 8.70648361410873  8.16198487291359 8.70648361410873  C 7.29704140982354 9.45279414870789  6.17188519417466 9.90383086173716  4.94117058212395 9.90383086173716  C 2.21220376002907 9.90383086173716  0 7.6861421674556  0 4.95171385153079  C 0 2.21728553560598  2.21220374647278 0  4.94117058212395 0  Z M 9.09949713071661 4.95133847582039  C 9.09949713071661 2.65068003857762  7.23766566589563 0.784889797011338  4.94117058212395 0.784889797011338  C 2.6454107524518 0.784889797011338  0.783579301187089 2.65068005216342  0.783579301187089 4.95133847582038  C 0.783579301187089 7.25274763731236  2.6454107524518 9.11855179073993  4.94117058212395 9.11855179073993  C 7.23766567945191 9.11855179073993  9.09949713071661 7.25274763731236  9.09949713071661 4.95133847582039  Z " fill-rule="nonzero" fill="#999999" stroke="none" transform="matrix(1 0 0 1 59 50 )" />
  </g>
</svg>