<?xml version="1.0" encoding="utf-8"?>
<svg version="1.1" xmlns:xlink="http://www.w3.org/1999/xlink" width="24px" height="20px" xmlns="http://www.w3.org/2000/svg">
  <g transform="matrix(1 0 0 1 -232 -4 )">
    <path d="M 18.9614375 10.3740416806641  C 18.3189724947007 10.7440381767706  17.4982960599839 10.5254580124922  17.1249791806641 9.88491668066406  C 16.7555080230758 9.24238247794103  16.9739841771768 8.42209653886666  17.6141041806641 8.04845831933594  L 19.9396875 6.70202081933594  C 20.582221693323 6.33254969015179  21.4025076011122 6.55102584091598  21.7761458193359 7.19114581933594  C 22.1456169769243 7.83368002205897  21.9271408228232 8.65396596113334  21.2870208193359 9.02760418066406  L 18.9614375 10.3740416806641  Z M 19.0259375 18.665875  C 18.3103629667096 18.472600472952  17.885006297831 17.7379298656704  18.0736666806641 17.021125  C 18.2665208385692 16.3052277545095  19.0015412424358 15.8796685617941  19.7184166806641 16.0688541806641  L 22.3154375 16.7613333193359  C 23.0313347454905 16.9541874772411  23.4568939382059 17.6892078811077  23.2677083193359 18.4060833193359  C 23.074854179993 19.121980581818  22.339833770293 19.5475397966767  21.6229583193359 19.3583541806641  L 19.0259375 18.665875  Z M 13.0525208193359 4.55739581933594  C 12.8592463108254 5.27297036961545  12.1245756977252 5.6983270606198  11.4077708193359 5.50966668066406  C 10.6918735738455 5.3168125227589  10.2663143811301 4.58179211889232  10.4555 3.86491668066406  L 11.1479791806641 1.26789581933594  C 11.3408333385692 0.551998573845463  12.0758537424358 0.126439381130055  12.7927291806641 0.315624999999999  C 13.5086264261545 0.508479157905157  13.93418561887 1.24349956177175  13.745 1.960375  L 13.0525208193359 4.55739581933594  Z M 4.75979168066406 4.62189581933594  C 5.12978820521402 5.2643608340214  4.91120803759029 6.08503730006403  4.27066668066406 6.45835418066406  C 3.62813247794103 6.82782533825237  2.80784653886666 6.60934918415128  2.43420831933594 5.96922918066406  L 1.08777081933594 3.64364581933594  C 0.718299690151788 3.00111162601298  0.936775840915985 2.18082571822376  1.57689581933593 1.8071875  C 2.21943002205897 1.43771634241169  3.03971596113334 1.65619249651277  3.41335418066406 2.2963125  L 4.75979168066406 4.62189581933594  Z " fill-rule="nonzero" fill="#f9a825" stroke="none" transform="matrix(1 0 0 1 232 4 )" />
  </g>
</svg>