<?xml version="1.0" encoding="utf-8"?>
<svg version="1.1" xmlns:xlink="http://www.w3.org/1999/xlink" width="29px" height="25px" xmlns="http://www.w3.org/2000/svg">
  <g transform="matrix(1 0 0 1 -298 -288 )">
    <path d="M 5.49884178125 0.91355859375  C 6.11563959375 0.298391687500001  7.1258026875 0.298391687500001  7.73610890625 0.91355859375  L 15.90832815625 9.084083  C 16.5234950625 9.70094478125  16.5234950625 10.707046625  15.90832815625 11.3214460625  C 15.2963910625 11.9398108125  14.28942578125 11.9398108125  13.6709970625 11.3214460625  L 5.49884178125 3.15491896875  C 4.8868726875 2.5380891875  4.8868726875 1.53275478125  5.49884178125 0.91355859375  Z M 27.01721234375 8.9788743125  L 17.03508421875 8.9788743125  C 17.55959259375 9.9493843125  17.41709721875 11.19030296875  16.5980045625 12.0110265  C 15.6007606875 13.00747090625  13.9801954375 13.00747090625  12.98464640625 12.0110265  L 9.95406115625 8.9788743125  L 2.80498821875 8.9788743125  C 1.8044825625 8.9788743125  0.982096125 9.80046128125  0.982096125 10.80176640625  C 0.982096125 11.80380703125  1.8044825625 12.62542596875  2.80498821875 12.62542596875  L 3.242067875 12.62542596875  L 7.44798425 24.9549225625  L 11.15849253125 24.9549225625  L 18.906519375 24.9549225625  L 22.62025746875 24.9549225625  L 26.826141875 12.62542596875  L 27.01721234375 12.62542596875  C 28.02091584375 12.62542596875  28.84004046875 11.803839  28.84004046875 10.80176640625  C 28.8400404375 9.80046128125  28.0209158125 8.9788743125  27.01721234375 8.9788743125  Z M 7.60662871875 13.774886625  L 22.31911765625 13.774886625  C 22.8340005625 13.774886625  23.25163740625 14.19578525  23.25163740625 14.71057221875  C 23.25163740625 15.225455125  22.83396859375 15.64632178125  22.31911765625 15.64632178125  L 7.60662871875 15.64632178125  C 7.09184175 15.64632178125  6.670943125 15.225455125  6.670943125 14.71057221875  C 6.670911125 14.19578525  7.09184171875 13.774886625  7.60662871875 13.774886625  Z M 9.66264271875 21.1959031875  L 9.66264271875 21  L 20.357087875 21  C 20.8686130625 21.1959031875  21.28954365625 21.620031625  21.28954365625 22.13481859375  C 21.28954365625 22.64963753125  20.8686130625 23.0705361875  20.357087875 23  L 9.66264271875 23  C 9.1494226875 23.0705361875  8.72689315625 22.6496375625  8.72689315625 22.13481859375  C 8.72689315625 21.620031625  9.1494226875 21.1959031875  9.66264271875 21.1959031875  Z M 7.703746875 18.48583659375  C 7.703746875 17.96778784375  8.11978478125 17.54365940625  8.63463571875 17.54365940625  L 21.47728840625 17.54365940625  C 21.99213934375 17.54365940625  22.4130699375 17.96778784375  22.4130699375 18.485836625  C 22.4130699375 19.0006555625  21.99213934375 19.41832440625  21.47728840625 19  L 8.63463571875 19  C 8.11978478125 19.418324375  7.703746875 19.0006235625  7.703746875 18.48583659375  Z " fill-rule="nonzero" fill="#ffffff" stroke="none" transform="matrix(1 0 0 1 298 288 )" />
  </g>
</svg>