<?xml version="1.0" encoding="utf-8"?>
<svg version="1.1" xmlns:xlink="http://www.w3.org/1999/xlink" width="14px" height="14px" xmlns="http://www.w3.org/2000/svg">
  <g transform="matrix(1 0 0 1 -48 -292 )">
    <path d="M 13.1818181875 1.363636375  C 13.1818181745558 1.86571341389354  12.774804312331 2.272727265625  12.2727272734375 2.272727265625  L 1.1818181875 2.272727265625  C 0.679741148606457 2.272727265625  0.272727286381674 1.86571341389354  0.2727272734375 1.363636375  C 0.2727272734375 0.861559326953546  0.679741139453547 0.454545460937501  1.1818181875 0.4545454609375  L 12.2727272734375 0.454545460937501  C 12.774804321484 0.454545460937501  13.1818181875 0.861559326953546  13.1818181875 1.363636375  Z M 12.2727272734375 7.9090909140625  C 12.2727272734375 7.9090909140625  12.2727272734375 7.9090909140625  12.2727272734375 8  L 1.1818181875 8  C 1.1818181875 7.9090909140625  1.1818181875 7.9090909140625  1.1818181875 7.9090909140625  C 0.679741139453547 7.9090909140625  0.2727272734375 7.50207704804646  0.2727272734375 7  C 0.2727272734375 6.49792295195355  0.679741139453547 6.0909090859375  1.1818181875 6.0909090859375  C 1.1818181875 6.0909090859375  1.1818181875 6.0909090859375  1.1818181875 6  L 12.2727272734375 6  C 12.2727272734375 6.0909090859375  12.2727272734375 6.0909090859375  12.2727272734375 6.0909090859375  C 12.774804321484 6.0909090859375  13.1818181875 6.49792295195355  13.1818181875 7  C 13.1818181875 7.50207704804646  12.774804321484 7.9090909140625  12.2727272734375 7.9090909140625  Z M 8.636363640625 12.4545454609375  C 8.636363640625 12.956622508984  8.22934977460896 13.363636375  7.7272727265625 13.363636375  L 1.1818181875 13.363636375  C 0.679741139453547 13.363636375  0.2727272734375 12.956622508984  0.2727272734375 12.4545454609375  C 0.2727272734375 11.952468412891  0.679741139453547 11.545454546875  1.1818181875 11.545454546875  L 7.7272727265625 11.545454546875  C 8.22934977460896 11.545454546875  8.636363640625 11.952468412891  8.636363640625 12.4545454609375  Z " fill-rule="nonzero" fill="#ffffff" stroke="none" transform="matrix(1 0 0 1 48 292 )" />
  </g>
</svg>