<?xml version="1.0" encoding="utf-8"?>
<svg version="1.1" xmlns:xlink="http://www.w3.org/1999/xlink" width="33px" height="21px" xmlns="http://www.w3.org/2000/svg">
  <g transform="matrix(1 0 0 1 -217 -14 )">
    <path d="M 8.922 8.79487499999999  C 9.67897918066406 5.328  12.8054375 2.8125  16.355625 2.8125  C 19.4342944623946 2.80789142013552  22.2114104190475 4.6616605446309  23.3879166806641 7.50666668066406  L 23.977375 8.92297918066406  L 25.4958125 9.13618749999999  C 27.6987712150255 9.45407507526255  29.336501719756 11.3376366666564  29.3452083193359 13.5633958193359  C 29.3452083193359 16.0332083193359  27.3358541386719 18.0425625  24.8660416806641 18  L 6.949375 18  C 4.97316668066406 18.0425625  3.36604168066406 16.4354375  3.36604168066406 14.4592291806641  C 3.36059728265828 12.6237588760872  4.7472343108738 11.0829649871721  6.573125 10.8956041806641  L 8.50722918066406 10.6949375  L 8.922 8.79487499999999  Z M 25.869375 6.47377081933594  C 24.3186875 2.74710418066406  20.644875 0.125  16.355625 0.125  C 11.4240625 0.125  7.3068125 3.59277081933594  6.2963125 8.22154168066406  C 3.10989172144849 8.56352691809485  0.693858228938211 11.2527382981971  0.693858228938211 14.4574584545611  C 0.693858228938211 17.914909182758  3.49193582353949 20.7202291762262  6.949375 20.7291666806641  L 24.8660416806641 20.7291666806641  C 28.8240823791163 20.7291666574724  32.0327083193359 17.5205406984523  32.0327083193359 13.5625  C 32.0327083193359 9.94602081933594  29.3505833193359 6.96289581933593  25.869375 6.47377081933594  Z " fill-rule="nonzero" fill="#a8a8b4" stroke="none" transform="matrix(1 0 0 1 217 14 )" />
  </g>
</svg>