<?xml version="1.0" encoding="utf-8"?>
<svg version="1.1" xmlns:xlink="http://www.w3.org/1999/xlink" width="17px" height="14px" xmlns="http://www.w3.org/2000/svg">
  <g transform="matrix(1 0 0 1 -233 -10 )">
    <path d="M 0.734562499999996 4.14022918066407  C 1.74111836224316 4.17463819275489  2.73703388998432 4.35788181412941  3.68991668066406 4.684  C 4.08782358764087 4.24012976725543  4.55233940606563 3.86084066459347  5.0668125 3.55972918066406  C 7.85030900558545 1.95207463481783  11.4098807438836 2.90108001714654  13.0236041806641 5.6810625  C 14.0992773927558 7.5422259182933  14.062777470305 9.84447507047628  12.9286458193359 11.6706041806641  C 13.6874354115506 12.1945723599364  14.338550968769 12.8593731900833  14.846625 13.6288958193359  C 16.7807291806641 10.9870833193359  17.0951666806641 7.34910413867188  15.3491875 4.334625  C 13.8276674068954 1.70628795150801  11.0208372212431 0.0879236073587286  7.98386849664339 0.0879236073587286  C 5.02762561344383 0.0879236073587286  2.28316578561653 1.62205526922632  0.734562499999996 4.14022918066407  Z " fill-rule="nonzero" fill="#f9a825" stroke="none" transform="matrix(1 0 0 1 233 10 )" />
  </g>
</svg>