<?xml version="1.0" encoding="utf-8"?>
<svg version="1.1" xmlns:xlink="http://www.w3.org/1999/xlink" width="34px" height="24px" xmlns="http://www.w3.org/2000/svg">
  <g transform="matrix(1 0 0 1 -212 -287 )">
    <path d="M 17.029490234375 23.64400390625  C 7.48408984375 23.64400390625  0.223496093750001 21.395455078125  0.143742187499999 18.416736328125  C 0.100212890624999 16.850013671875  1.582333984375 16.040056640625  3.262677734375 15.747537109375  C 3.801830078125 9.14698828125  7.24715234375 2.232138671875  13.14894140625 1.018431640625  C 13.678431640625 0.791156250000003  15.4724296875 0.0634101562500025  16.995623046875 0.0246953125000022  C 16.998046875 0.0246953125000022  16.998046875 0.0246953125000022  17.000470703125 0.0246953125000022  C 18.61072265625 0.0246953125000022  20.165326171875 0.754865234375004  20.69481640625 1.032908203125  C 28.7871484375 2.817244140625  30.4698828125 11.97576171875  30.820474609375 15.8345625  C 32.157498046875 16.141625  33.687962890625 16.7920078125  33.4969453125 18.462689453125  C 33.499369140625 19.52409375  30.704396484375 23.643970703125  17.02945703125 23.643970703125  Z M 2.721068359375 18.411955078125  C 3.73651953125 19.33556640625  8.15864453125 21.22621875  17.02706640625 21.22621875  C 26.49991796875 21.22621875  29.848552734375 19.183197265625  30.82774609375 18.33940625  C 30.564212890625 18.247533203125  30.143529296875 18.13387890625  29.488298828125 18.027529296875  C 28.9297890625 17.938080078125  28.49701953125 17.336041015625  28.465576171875 16.767869140625  C 28.3156640625 14.195357421875  27.37515234375 6.11753515625  21.490296875 3.79165625  L 21.52170703125 11.01114453125  C 21.52170703125 11.01114453125  21.52170703125 11.013568359375  21.52170703125 11.013568359375  C 21.52170703125 11.6784609375  20.9825546875 12.2224609375  20.317662109375 12.2224609375  C 20.31523828125 12.2224609375  20.31523828125 12.2224609375  20.312814453125 12.2224609375  C 19.647921875 12.2224609375  19.106345703125 11.68330859375  19.103921875 11.018416015625  L 19.0700546875 2.9358125  C 18.52120703125 2.698875  17.757203125 2.44015625  17.11405859375 2.44015625  C 16.362140625 2.45948046875  15.41193359375 2.74237109375  14.73253125 2.991427734375  L 14.80265625 10.931423828125  C 14.80265625 10.93384765625  14.80265625 10.9386953125  14.80265625 10.943509765625  C 14.80265625 11.605978515625  14.268318359375 12.1451640625  13.603458984375 12.15240234375  C 13.60103515625 12.15240234375  13.5961875 12.15240234375  13.593796875 12.15240234375  C 12.931328125 12.15240234375  12.389751953125 11.618064453125  12.384904296875 10.953205078125  L 12.319626953125 3.80865625  C 8.19008789062501 5.62925  5.803712890625 11.610826171875  5.619966796875 16.879166015625  C 5.59821875 17.505376953125  5.100171875 18.0106953125  4.4739609375 18.04210546875  C 3.84535937500001 18.07597265625  3.10549414062501 18.237970703125  2.72106835937501 18.412021484375  Z " fill-rule="nonzero" fill="#ffffff" stroke="none" transform="matrix(1 0 0 1 212 287 )" />
  </g>
</svg>