<?xml version="1.0" standalone="no"?><!DOCTYPE svg PUBLIC "-//W3C//DTD SVG 1.1//EN" "http://www.w3.org/Graphics/SVG/1.1/DTD/svg11.dtd"><svg t="1570609980506" class="icon" viewBox="0 0 1024 1024" version="1.1" xmlns="http://www.w3.org/2000/svg" p-id="3383" xmlns:xlink="http://www.w3.org/1999/xlink" width="200" height="200"><defs><style type="text/css"></style></defs><path d="M516.602143 1024L197.729435 602.415834c-40.489559-46.021427-65.289995-126.535682-65.289994-214.046123C132.439441 182.76085 297.093881 15.503178 499.495188 15.503178s367.055747 167.257672 367.055747 372.866533c0 72.193209-20.570183 142.433993-59.479208 203.168331L516.602143 1024z m-17.106955-962.010532c-176.764118 0-320.569457 146.408571-320.569457 326.380243 0 75.400763 20.98856 146.176139 54.807336 184.690031l280.637734 370.914109 253.86163-377.956782a329.029962 329.029962 0 0 0 51.832214-177.647358c0-179.971672-143.828582-326.380243-320.569457-326.380243z m5.043762 498.635192c-93.600145 0-169.767932-75.67968-169.767931-168.698748 0-93.019067 76.167786-168.72199 169.767931-168.72199 93.623388 0 169.791175 75.67968 169.791175 168.72199 0 93.019067-76.167786 168.698747-169.791175 168.698748z m0-290.911204c-67.986199 0-123.281642 54.830579-123.281641 122.2357 0 67.381878 55.295442 122.212457 123.281641 122.212456 67.986199 0 123.304885-54.830579 123.304885-122.212456 0-67.428364-55.318685-122.2357-123.304885-122.2357z" fill="" p-id="3384"></path></svg>