<?xml version="1.0" encoding="utf-8"?>
<svg version="1.1" xmlns:xlink="http://www.w3.org/1999/xlink" width="26px" height="25px" xmlns="http://www.w3.org/2000/svg">
  <g transform="matrix(1 0 0 1 -124 -286 )">
    <path d="M 19.487 12.5  L 25.974 6.2625  L 19.487 0.025  L 13 6.2625  L 6.513 0.025  L 0.026 6.2625  L 6.513 12.5  L 0.026 18.7375  L 0.026 24.975  L 6.513 24.975  L 13 18.7375  L 19.487 24.975  L 25.974 18.7375  L 19.487 12.5  Z M 7.64725 11.4078125  L 6.6755 10.4734375  L 9.4315 7.821875  L 8.29725 6.7296875  L 5.539625 9.38125  L 4.56625 8.4453125  L 7.486375 5.640625  L 6.188 4.546875  L 3.432 7.3546875  L 2.2945 6.2640625  L 6.513 2.209375  L 11.8625 7.353125  L 7.64725 11.4078125  Z M 4.89125 23.415625  L 1.64775 23.415625  L 1.64775 20.296875  L 4.89125 23.415625  Z M 6.511375 22.79375  L 6.513 22.7921875  L 2.296125 18.7375  L 19.488625 2.20625  L 23.703875 6.2625  L 6.511375 22.79375  Z M 23.703875 18.7375  L 23.7055 18.7375  L 19.487 22.7921875  L 18.35275 21.7  L 21.27125 18.89375  L 20.135375 17.8015625  L 17.216875 20.609375  L 16.2435 19.6734375  L 19.163625 16.8671875  L 17.86525 15.7734375  L 14.94675 18.58125  L 13.97175 17.646875  L 18.19025 13.5921875  L 23.703875 18.7375  Z " fill-rule="nonzero" fill="#ffffff" stroke="none" transform="matrix(1 0 0 1 124 286 )" />
  </g>
</svg>