<?xml version="1.0" encoding="utf-8"?>
<svg version="1.1" xmlns:xlink="http://www.w3.org/1999/xlink" width="24px" height="24px" xmlns="http://www.w3.org/2000/svg">
  <g transform="matrix(1 0 0 1 -43 -287 )">
    <path d="M 23 21.27272728125  C 23.0909090859375 22.7789584124452  21.8698674983827 24  20.3636363671875 24  L 3.6363636328125 24  C 2.13013250161731 24  0.909090914062499 22.7789584124452  1 21.27272728125  L 1 2.72727271875  C 0.909090914062499 1.22104158755481  2.13013250161731 0  3.6363636328125 0  L 20.3636363671875 0  C 21.8698674983827 0  23.0909090859375 1.22104158755481  23 2.72727271875  L 23 21.27272728125  Z M 20.3636363671875 2  L 3.6363636328125 2  C 3.13428659391896 1.818181828125  2.72727273169417 2.22519567985646  3 2.72727271875  L 3 21.27272728125  C 2.72727273169417 21.7748043201435  3.13428659391896 22.181818171875  3.6363636328125 22  L 20.3636363671875 22  C 20.865713406081 22.181818171875  21.2727272683058 21.7748043201435  21 21.27272728125  L 21 2.72727271875  C 21.2727272683058 2.22519567985646  20.865713406081 1.818181828125  20.3636363671875 2  Z " fill-rule="nonzero" fill="#ffffff" stroke="none" transform="matrix(1 0 0 1 43 287 )" />
  </g>
</svg>