<?xml version="1.0" encoding="utf-8"?>
<svg version="1.1" xmlns:xlink="http://www.w3.org/1999/xlink" width="9px" height="15px" xmlns="http://www.w3.org/2000/svg">
  <g transform="matrix(1 0 0 1 -346 -92 )">
    <path d="M 0.500059060362121 14.4999995575711  C 0.500059060362121 14.776118859771  0.723880691234912 14.9999669232946  1 14.9999995387065  C 1.12621575342946 15.0001712058479  1.24779073778679 14.9524235676169  1.34015625 14.8664057928149  L 8.34015625 8.36640599270875  C 8.44204595777061 8.27179942453854  8.49994093588122 8.13903900977171  8.49994093588122 7.9999997539768  C 8.49994093588122 7.8609604981819  8.4420459577706 7.72820008341507  8.34015625 7.63359351524486  L 1.34015625 1.13359371513871  C 1.24767113128788 1.04771467897563  1.12613085443138 0.999986999445013  0.999921875 0.999986999445013  C 0.723772337060481 0.999986999445013  0.499908905197513 1.22385042442353  0.499908905197513 1.49999995387065  C 0.499908905197513 1.6390379577569  0.557801352530147 1.77179763000437  0.6596875 1.8664061926026  L 7.265625 7.9999997539768  L 0.65984375 14.133593315351  C 0.557954039952735 14.2281998836899  0.500059060362121 14.3609602999931  0.500059060362121 14.4999995575711  Z " fill-rule="nonzero" fill="#d7d7d7" stroke="none" transform="matrix(1 0 0 1 346 92 )" />
  </g>
</svg>