<?xml version="1.0" encoding="utf-8"?>
<svg version="1.1" xmlns:xlink="http://www.w3.org/1999/xlink" width="12px" height="12px" xmlns="http://www.w3.org/2000/svg">
  <g transform="matrix(1 0 0 1 -124 -336 )">
    <path d="M 10.56455859375 5.6280234375  L 5.8790625 10.35554296875  L 1.15153125 5.6280234375  C 0.94777734375 5.42426953125  0.6174375 5.42426953125  0.41368359375 5.6280234375  C 0.2099296875 5.83177734375  0.2099296875 6.1621171875  0.41368359375 6.36587109375  L 5.85805078125 11.81023828125  L 11.30241796875 6.36587109375  C 11.506171875 6.1621171875  11.506171875 5.83177734375  11.30241796875 5.6280234375  C 11.0986640625 5.42426953125  10.7683125 5.42426953125  10.56455859375 5.6280234375  Z M 10.56455859375 0.410625  L 5.87058984375 5.12968359375  L 1.15153125 0.410625  C 0.94777734375 0.20687109375  0.6174375 0.20687109375  0.41368359375 0.410625  C 0.2099296875 0.61437890625  0.2099296875 0.94471875  0.41368359375 1.14847265625  L 5.85805078125 6.592828125  L 11.30241796875 1.14847265625  C 11.506171875 0.94471875  11.506171875 0.61437890625  11.30241796875 0.410625  C 11.0986640625 0.20687109375  10.7683125 0.20687109375  10.56455859375 0.410625  Z " fill-rule="nonzero" fill="#0079fe" stroke="none" transform="matrix(1 0 0 1 124 336 )" />
  </g>
</svg>